<svg xmlns="http://www.w3.org/2000/svg" fill="none" viewBox="0 0 87 122">
  <path class="stroke" stroke="#fff" stroke-width="4" d="m43.0833 115.667-1.4842 1.34 1.4842 1.643 1.4842-1.643-1.4842-1.34Zm0 0c1.4842 1.34 1.4846 1.34 1.4851 1.339l.0018-.002.0062-.007.023-.025.0875-.098c.0764-.085.1886-.211.3343-.376.2914-.33.7167-.816 1.2567-1.442 1.0799-1.254 2.6193-3.074 4.4651-5.348 3.6898-4.546 8.6129-10.9197 13.5399-18.2222 4.9232-7.2969 9.8751-15.5579 13.6022-23.8774 3.7154-8.2933 6.2816-16.7923 6.2816-24.5251A41.0836 41.0836 0 0 0 14.033 14.033 41.0835 41.0835 0 0 0 2 43.0833c0 7.7328 2.5662 16.2318 6.2816 24.5251 3.7271 8.3195 8.679 16.5805 13.6021 23.8774 4.9271 7.3025 9.8501 13.6762 13.5399 18.2222 1.8458 2.274 3.3852 4.094 4.4652 5.348.54.626.9652 1.112 1.2566 1.442.1457.165.258.291.3344.376l.0874.098.023.025.0063.007.0017.002c.0006.001.0009.001 1.4851-1.339Z"/>
  <path class="bg" fill="#fff" d="M60 44c0 9.3888-7.6112 17-17 17s-17-7.6112-17-17 7.6112-17 17-17 17 7.6112 17 17Z"/>
  <path class="fg" fill="#1853BA" d="M43.0833 57.0417a13.9584 13.9584 0 1 1 .0001-27.9168 13.9584 13.9584 0 0 1-.0001 27.9168Zm0-53.0417a39.0837 39.0837 0 0 0-27.6361 11.4472A39.0837 39.0837 0 0 0 4 43.0833c0 29.3125 39.0833 72.5837 39.0833 72.5837s39.0834-43.2712 39.0834-72.5837A39.0834 39.0834 0 0 0 43.0833 4Z"/>
</svg>